<svg id="visual" viewBox="0 0 960 540" width="960" height="540" xmlns="http://www.w3.org/2000/svg" xmlns:xlink="http://www.w3.org/1999/xlink" version="1.1"><rect x="0" y="0" width="960" height="540" fill="#2a2930"></rect><path d="M655 540L701 540L701 473L671 473L671 405L651 405L651 338L642 338L642 270L680 270L680 203L672 203L672 135L691 135L691 68L649 68L649 0L960 0L960 68L960 68L960 135L960 135L960 203L960 203L960 270L960 270L960 338L960 338L960 405L960 405L960 473L960 473L960 540L960 540Z" fill="#2a2930"></path><path d="M723 540L751 540L751 473L743 473L743 405L743 405L743 338L736 338L736 270L746 270L746 203L731 203L731 135L716 135L716 68L735 68L735 0L960 0L960 68L960 68L960 135L960 135L960 203L960 203L960 270L960 270L960 338L960 338L960 405L960 405L960 473L960 473L960 540L960 540Z" fill="#393a47"></path><path d="M786 540L762 540L762 473L754 473L754 405L782 405L782 338L794 338L794 270L791 270L791 203L810 203L810 135L797 135L797 68L767 68L767 0L960 0L960 68L960 68L960 135L960 135L960 203L960 203L960 270L960 270L960 338L960 338L960 405L960 405L960 473L960 473L960 540L960 540Z" fill="#474c60"></path><path d="M832 540L815 540L815 473L826 473L826 405L837 405L837 338L831 338L831 270L864 270L864 203L852 203L852 135L841 135L841 68L854 68L854 0L960 0L960 68L960 68L960 135L960 135L960 203L960 203L960 270L960 270L960 338L960 338L960 405L960 405L960 473L960 473L960 540L960 540Z" fill="#535f7a"></path><path d="M874 540L900 540L900 473L880 473L880 405L902 405L902 338L911 338L911 270L893 270L893 203L897 203L897 135L922 135L922 68L896 68L896 0L960 0L960 68L960 68L960 135L960 135L960 203L960 203L960 270L960 270L960 338L960 338L960 405L960 405L960 473L960 473L960 540L960 540Z" fill="#5d7394"></path></svg>